<svg width="200px" height="400px" xmlns="http://www.w3.org/2000/svg"  version="1.1" xmlns:xlink="http://www.w3.org/1999/xlink" x="0px" y="0px" 
	viewBox="0 0 250 126" xml:space="preserve">
    <circle r="50" cx="50" cy="250" fill="#dce4f8"/>		
	<path d="M130,13 L222,13" stroke-dasharray="1 3" stroke-width="1" stroke="#999999"/>
	<path d="M120,16 L226,16" stroke-dasharray="1 3" stroke-width="1" stroke="#999999"/>		<path d="M110,19 L229,19" stroke-dasharray="1 3" stroke-width="1" stroke="#999999"/>		<path d="M102,22 L232,22" stroke-dasharray="1 3" stroke-width="1" stroke="#999999"/>
    <path d="M96,25 L231,25" stroke-dasharray="1 3" stroke-width="1" stroke="#999999"/>
    <path d="M90,28 L231,28" stroke-dasharray="1 3" stroke-width="1" stroke="#999999"/>
    <path d="M85,31 L235,31" stroke-dasharray="1 3" stroke-width="1" stroke="#999999"/>	
    <path d="M80,34 L200,34" stroke-dasharray="1 3" stroke-width="1" stroke="#999999"/>
    <path d="M75,37 L210,37" stroke-dasharray="1 3" stroke-width="1" stroke="#999999"/>
    <path d="M71,40 L216,40" stroke-dasharray="1 3" stroke-width="1" stroke="#999999"/>
    <path d="M67,43 L218,43" stroke-dasharray="1 3" stroke-width="1" stroke="#999999"/>
    <path d="M63,46 L222,46" stroke-dasharray="1 3" stroke-width="1" stroke="#999999"/>
    <path d="M60,49 L226,49" stroke-dasharray="1 3" stroke-width="1" stroke="#999999"/>
    <path d="M57,52 L229,52" stroke-dasharray="1 3" stroke-width="1" stroke="#999999"/>
    <path d="M54,55 L232,55" stroke-dasharray="1 3" stroke-width="1" stroke="#999999"/>
	<path d="M52,58 L231,58" stroke-dasharray="1 3" stroke-width="1" stroke="#999999"/>
	<path d="M49,61 L231,61" stroke-dasharray="1 3" stroke-width="1" stroke="#999999"/>
	<path d="M47,64 L235,64" stroke-dasharray="1 3" stroke-width="1" stroke="#999999"/>
	<path d="M44,67 L200,67" stroke-dasharray="1 3" stroke-width="1" stroke="#999999"/>
	<path d="M42,70 L210,70" stroke-dasharray="1 3" stroke-width="1" stroke="#999999"/>
	<path d="M40,73 L216,73" stroke-dasharray="1 3" stroke-width="1" stroke="#999999"/>
	<path d="M38,76 L218,76" stroke-dasharray="1 3" stroke-width="1" stroke="#999999"/>
	<path d="M35,79 L222,79" stroke-dasharray="1 3" stroke-width="1" stroke="#999999"/>
	<path d="M33,82 L226,82" stroke-dasharray="1 3" stroke-width="1" stroke="#999999"/>
	<path d="M31,85 L229,85" stroke-dasharray="1 3" stroke-width="1" stroke="#999999"/>
	<path d="M29,88 L232,88" stroke-dasharray="1 3" stroke-width="1" stroke="#999999"/>
	<path d="M27,91 L231,91" stroke-dasharray="1 3" stroke-width="1" stroke="#999999"/>
	<path d="M26,94 L231,94" stroke-dasharray="1 3" stroke-width="1" stroke="#999999"/>
	<path d="M24,97 L235,97" stroke-dasharray="1 3" stroke-width="1" stroke="#999999"/>
	<path d="M23,100 L237,100" stroke-dasharray="1 3" stroke-width="1" stroke="#999999"/>
	<path d="M23,103 L239,103" stroke-dasharray="1 3" stroke-width="1" stroke="#999999"/>
	<path d="M21,106 L244,106" stroke-dasharray="1 3" stroke-width="1" stroke="#999999"/>
	<path d="M20,109 L242,109" stroke-dasharray="1 3" stroke-width="1" stroke="#999999"/>
	<path d="M19,112 L241,112" stroke-dasharray="1 3" stroke-width="1" stroke="#999999"/>
	<path d="M18,115 L242,115" stroke-dasharray="1 3" stroke-width="1" stroke="#999999"/>
	<path d="M17,118 L246,118" stroke-dasharray="1 3" stroke-width="1" stroke="#999999"/>
	<path d="M16,121 L246,121" stroke-dasharray="1 3" stroke-width="1" stroke="#999999"/>
	<path d="M16,124 L246,124" stroke-dasharray="1 3" stroke-width="1" stroke="#999999"/>
	<path d="M15,127 L250,127" stroke-dasharray="1 3" stroke-width="1" stroke="#999999"/>
	<path d="M14,130 L250,130" stroke-dasharray="1 3" stroke-width="1" stroke="#999999"/>
	<path d="M13,133 L250,133" stroke-dasharray="1 3" stroke-width="1" stroke="#999999"/>
	<path d="M13,136 L249,136" stroke-dasharray="1 3" stroke-width="1" stroke="#999999"/>
	<path d="M12,139 L249,139" stroke-dasharray="1 3" stroke-width="1" stroke="#999999"/>
	<path d="M12,142 L249,142" stroke-dasharray="1 3" stroke-width="1" stroke="#999999"/>
	<path d="M12,145 L249,145" stroke-dasharray="1 3" stroke-width="1" stroke="#999999"/>
	<path d="M12,148 L249,148" stroke-dasharray="1 3" stroke-width="1" stroke="#999999"/>
	<path d="M11,151 L249,151" stroke-dasharray="1 3" stroke-width="1" stroke="#999999"/>
	<path d="M11,154 L249,154" stroke-dasharray="1 3" stroke-width="1" stroke="#999999"/>
	<path d="M11,157 L249,157" stroke-dasharray="1 3" stroke-width="1" stroke="#999999"/>
	<path d="M11,160 L249,160" stroke-dasharray="1 3" stroke-width="1" stroke="#999999"/>
	<path d="M11,163 L248,163" stroke-dasharray="1 3" stroke-width="1" stroke="#999999"/>
	<path d="M11,166 L248,166" stroke-dasharray="1 3" stroke-width="1" stroke="#999999"/>
	<path d="M11,169 L248,169" stroke-dasharray="1 3" stroke-width="1" stroke="#999999"/>
	<path d="M11,172 L248,172" stroke-dasharray="1 3" stroke-width="1" stroke="#999999"/>
	<path d="M11,175 L248,175" stroke-dasharray="1 3" stroke-width="1" stroke="#999999"/>
	<path d="M12,178 L248,178" stroke-dasharray="1 3" stroke-width="1" stroke="#999999"/>
	<path d="M12,181 L248,181" stroke-dasharray="1 3" stroke-width="1" stroke="#999999"/>
	<path d="M13,184 L245,184" stroke-dasharray="1 3" stroke-width="1" stroke="#999999"/>
	<path d="M13,187 L244,187" stroke-dasharray="1 3" stroke-width="1" stroke="#999999"/>
	<path d="M14,190 L242,190" stroke-dasharray="1 3" stroke-width="1" stroke="#999999"/>
	<path d="M15,193 L241,193" stroke-dasharray="1 3" stroke-width="1" stroke="#999999"/>
	<path d="M16,196 L241,196" stroke-dasharray="1 3" stroke-width="1" stroke="#999999"/>
	<path d="M17,199 L237,199" stroke-dasharray="1 3" stroke-width="1" stroke="#999999"/>
	<path d="M18,202 L237,202" stroke-dasharray="1 3" stroke-width="1" stroke="#999999"/>
	<path d="M19,205 L234,205" stroke-dasharray="1 3" stroke-width="1" stroke="#999999"/>
	<path d="M20,208 L234,208" stroke-dasharray="1 3" stroke-width="1" stroke="#999999"/>
	<path d="M21,211 L230,211" stroke-dasharray="1 3" stroke-width="1" stroke="#999999"/>
	<path d="M22,214 L230,214" stroke-dasharray="1 3" stroke-width="1" stroke="#999999"/>
	<path d="M23,217 L228,217" stroke-dasharray="1 3" stroke-width="1" stroke="#999999"/>
	<path d="M24,220 L223,220" stroke-dasharray="1 3" stroke-width="1" stroke="#999999"/>
	<path d="M25,223 L219,223" stroke-dasharray="1 3" stroke-width="1" stroke="#999999"/>
	<path d="M26,226 L215,226" stroke-dasharray="1 3" stroke-width="1" stroke="#999999"/>
	<path d="M28,229 L211,229" stroke-dasharray="1 3" stroke-width="1" stroke="#999999"/>
	<path d="M30,232 L208,232" stroke-dasharray="1 3" stroke-width="1" stroke="#999999"/>
	<path d="M32,235 L204,235" stroke-dasharray="1 3" stroke-width="1" stroke="#999999"/>
	<path d="M34,238 L200,238" stroke-dasharray="1 3" stroke-width="1" stroke="#999999"/>	
	<path d="M36,241 L195,241" stroke-dasharray="1 3" stroke-width="1" stroke="#999999"/>
	<path d="M38,244 L185,244" stroke-dasharray="1 3" stroke-width="1" stroke="#999999"/>
	<path d="M40,247 L175,247" stroke-dasharray="1 3" stroke-width="1" stroke="#999999"/>
	<path d="M42,250 L282,250" stroke-dasharray="1 3" stroke-width="1" stroke="#999999"/>
	<path d="M43,253 L279,253" stroke-dasharray="1 3" stroke-width="1" stroke="#999999"/>
	<path d="M46,256 L276,256" stroke-dasharray="1 3" stroke-width="1" stroke="#999999"/>
	<path d="M49,259 L273,259" stroke-dasharray="1 3" stroke-width="1" stroke="#999999"/>
	<path d="M52,262 L270,262" stroke-dasharray="1 3" stroke-width="1" stroke="#999999"/>
	<path d="M55,265 L267,265" stroke-dasharray="1 3" stroke-width="1" stroke="#999999"/>
	<path d="M58,268 L265,268" stroke-dasharray="1 3" stroke-width="1" stroke="#999999"/>
	<path d="M62,271 L260,271" stroke-dasharray="1 3" stroke-width="1" stroke="#999999"/>
	<path d="M66,274 L258,274" stroke-dasharray="1 3" stroke-width="1" stroke="#999999"/>
	<path d="M69,277 L255,277" stroke-dasharray="1 3" stroke-width="1" stroke="#999999"/>
	<path d="M73,280 L250,280" stroke-dasharray="1 3" stroke-width="1" stroke="#999999"/>
	<path d="M76,283 L245,283" stroke-dasharray="1 3" stroke-width="1" stroke="#999999"/>
	<path d="M79,286 L240,286" stroke-dasharray="1 3" stroke-width="1" stroke="#999999"/>
	<path d="M84,289 L235,289" stroke-dasharray="1 3" stroke-width="1" stroke="#999999"/>
	<path d="M90,292 L230,292" stroke-dasharray="1 3" stroke-width="1" stroke="#999999"/>	
	<path d="M98,295 L225,295" stroke-dasharray="1 3" stroke-width="1" stroke="#999999"/>
	<path d="M105,298 L217,298" stroke-dasharray="1 3" stroke-width="1" stroke="#999999"/>
	<path d="M110,301 L210,301" stroke-dasharray="1 3" stroke-width="1" stroke="#999999"/>
	<path d="M122,304 L195,304" stroke-dasharray="1 3" stroke-width="1" stroke="#999999"/>
	<path d="M134,307 L175,307" stroke-dasharray="1 3" stroke-width="1" stroke="#999999"/>
</svg>